<svg xmlns="http://www.w3.org/2000/svg" viewBox="0 0 512 512">
  <defs>
    <linearGradient id="g" x1=".15" y1="0" x2=".85" y2="1"><stop offset="0" stop-color="#2a9d74"/><stop offset=".5" stop-color="#17795a"/><stop offset="1" stop-color="#0a4a34"/></linearGradient>
    <linearGradient id="h" x1="0" y1="0" x2="0" y2="1"><stop offset="0" stop-color="#fff" stop-opacity=".16"/><stop offset=".5" stop-color="#fff" stop-opacity="0"/></linearGradient>
    <linearGradient id="e" gradientUnits="userSpaceOnUse" x1="0" y1="270" x2="0" y2="370"><stop offset="0" stop-color="#1b8462"/><stop offset="1" stop-color="#0e5a41"/></linearGradient>
    <linearGradient id="w" x1="0" y1="0" x2="0" y2="1"><stop offset="0" stop-color="#fff"/><stop offset="1" stop-color="#e8f4ee"/></linearGradient>
    <filter id="b" x="-20%" y="-20%" width="140%" height="140%"><feGaussianBlur stdDeviation="9"/></filter>
  </defs>
  <rect width="512" height="512" rx="116" fill="url(#g)"/>
  <rect width="512" height="512" rx="116" fill="url(#h)"/>
  <rect x="3" y="3" width="506" height="506" rx="113" fill="none" stroke="#fff" stroke-opacity=".12" stroke-width="6"/>
  <path d="M112 254 L256 132 L400 254 H364 V390 a16 16 0 0 1 -16 16 H164 a16 16 0 0 1 -16 -16 V254 Z" fill="#04291a" opacity=".38" stroke="#04291a" stroke-width="26" stroke-linejoin="round" transform="translate(0 14)" filter="url(#b)"/>
  <path d="M322 166 V138 a8 8 0 0 1 8 -8 H346 a8 8 0 0 1 8 8 V194" fill="url(#w)"/>
  <path d="M112 242 L256 120 L400 242 H364 V378 a16 16 0 0 1 -16 16 H164 a16 16 0 0 1 -16 -16 V242 Z" fill="url(#w)" stroke="url(#w)" stroke-width="26" stroke-linejoin="round"/>
  <g fill="none" stroke="url(#e)" stroke-linecap="round">
    <path d="M300 282 A48 48 0 1 0 300 350" stroke-width="22"/>
    <path d="M206 305 H268 M206 328 H260" stroke-width="15"/>
  </g>
</svg>
